<svg width="225" height="201" xmlns="http://www.w3.org/2000/svg">

 <g>
  <title>Layer 1</title>
  <g>

   <g id="svg_1">
    <path fill="#e24329" d="m221.83,73.21272l-0.27,-0.69l-26.14,-68.22a6.81,6.81 0 0 0 -2.69,-3.24a7,7 0 0 0 -8,0.43a7,7 0 0 0 -2.32,3.52l-17.65,54l-71.47,0l-17.65,-54a6.86,6.86 0 0 0 -2.32,-3.53a7,7 0 0 0 -8,-0.43a6.87,6.87 0 0 0 -2.69,3.24l-26.19,68.19l-0.26,0.69a48.54,48.54 0 0 0 16.1,56.1l0.09,0.07l0.24,0.17l39.82,29.82l19.7,14.91l12,9.06a8.07,8.07 0 0 0 9.76,0l12,-9.06l19.7,-14.91l40.06,-30l0.1,-0.08a48.56,48.56 0 0 0 16.08,-56.04z" class="cls-1"/>
    <path fill="#fc6d26" d="m221.83,73.21272l-0.27,-0.69a88.3,88.3 0 0 0 -35.15,15.8l-57.41,43.41c19.55,14.79 36.57,27.64 36.57,27.64l40.06,-30l0.1,-0.08a48.56,48.56 0 0 0 16.1,-56.08z" class="cls-2"/>
    <path fill="#fca326" d="m92.43,159.37272l19.7,14.91l12,9.06a8.07,8.07 0 0 0 9.76,0l12,-9.06l19.7,-14.91s-17.04,-12.89 -36.59,-27.64c-19.55,14.75 -36.57,27.64 -36.57,27.64z" class="cls-3"/>
    <path fill="#fc6d26" d="m71.58,88.32272a88.19,88.19 0 0 0 -35.14,-15.84l-0.26,0.69a48.54,48.54 0 0 0 16.1,56.1l0.09,0.07l0.24,0.17l39.82,29.82s17,-12.85 36.57,-27.64l-57.42,-43.37z" class="cls-2"/>
   </g>
  </g>
  <g stroke="null">
   <g stroke="null">
    <g stroke="null">
     <path stroke="null" fill="#B2F3FF" d="m113.4375,80.49268l-105.875,0c-3.12757,0 -5.67187,2.54431 -5.67187,5.67187l0,9.11707c0,1.91638 0.7182,3.74438 2.02179,5.14557l44.23401,49.67334c0.65179,0.70166 1.00983,1.61365 1.00983,2.57196l0,30.74298c0,2.4649 1.20575,4.78021 3.22541,6.1944l16.48767,11.54132c0.32306,0.22711 0.70355,0.34149 1.0838,0.34149c0.29919,0 0.59815,-0.07019 0.87323,-0.21411c0.6258,-0.32495 1.01739,-0.97107 1.01739,-1.67651l0,-46.92957c0,-0.95831 0.35827,-1.8703 1.00983,-2.57196l44.23401,-49.6731c1.30359,-1.40143 2.02179,-3.22919 2.02179,-5.14557l0,-9.1173c0,-3.12757 -2.54431,-5.67187 -5.67187,-5.67187z"/>
    </g>
    <g stroke="null">
     <path stroke="null" fill="#51DBFF" d="m1.92206,95.61768c0.07964,1.7916 0.76405,3.49151 1.99012,4.80975l44.23401,49.67334c0.09997,0.10753 0.17937,0.22829 0.2654,0.34528l24.17684,0c0.08579,-0.11698 0.16543,-0.23775 0.2654,-0.34528l44.23377,-49.67334c1.22607,-1.31824 1.91048,-3.01815 1.99012,-4.80975l-117.15565,0z"/>
    </g>
    <g stroke="null">
     <path stroke="null" fill="#51DBFF" d="m60.5,80.49268l-52.9375,0c-3.12757,0 -5.67187,2.54431 -5.67187,5.67187l0,9.11707c0,1.91638 0.7182,3.74438 2.02179,5.14557l44.23401,49.67334c0.65179,0.70166 1.00983,1.61365 1.00983,2.57196l0,30.74298c0,2.4649 1.20575,4.78021 3.22541,6.1944l8.11834,5.68275l0,-114.79993z"/>
    </g>
    <g stroke="null">
     <path stroke="null" fill="#45BDF0" d="m60.5,150.4458l0,-54.82812l-58.57794,0c0.03947,0.89143 0.23018,1.7597 0.56128,2.57007c0.02741,0.06594 0.06735,0.12596 0.09666,0.19119c0.14771,0.3337 0.30817,0.66243 0.50432,0.97225c0.24295,0.37907 0.51638,0.74136 0.82786,1.07624l44.23401,49.67334c0.09997,0.10753 0.17937,0.22829 0.2654,0.34528l12.08842,0l0,-0.00024z"/>
    </g>
    <g stroke="null">
     <path stroke="null" fill="#527991" d="m60.5,86.16455l-57.66406,0c-1.56615,0 -2.83594,-1.26979 -2.83594,-2.83594l0,0c0,-1.56615 1.26979,-2.83594 2.83594,-2.83594l57.66406,0l0,5.67187z"/>
    </g>
    <g stroke="null">
     <path stroke="null" fill="#45BDF0" d="m118.16406,86.16455l-57.66406,0l0,-5.67187l57.66406,0c1.56615,0 2.83594,1.26979 2.83594,2.83594l0,0c0,1.56615 -1.26979,2.83594 -2.83594,2.83594z"/>
    </g>
   </g>
   <g stroke="null"/>
   <g stroke="null"/>
   <g stroke="null"/>
   <g stroke="null"/>
   <g stroke="null"/>
   <g stroke="null"/>
   <g stroke="null"/>
   <g stroke="null"/>
   <g stroke="null"/>
   <g stroke="null"/>
   <g stroke="null"/>
   <g stroke="null"/>
   <g stroke="null"/>
   <g stroke="null"/>
   <g stroke="null"/>
  </g>
 </g>
</svg>